<svg width="44" height="43" viewBox="0 0 44 43" fill="none" xmlns="http://www.w3.org/2000/svg">
<g clip-path="url(#clip0_282_1934)">
<path d="M13.4337 31.8682C11.4736 31.8682 9.88767 33.4582 9.88767 35.4016C9.88767 37.3449 11.4736 38.9349 13.4337 38.9349C15.3938 38.9349 16.9975 37.3449 16.9975 35.4016C16.9975 33.4582 15.3938 31.8682 13.4337 31.8682ZM2.74219 3.60156V7.1349H6.30602L12.7209 20.5439L10.3153 24.8722C10.0302 25.3669 9.86985 25.9499 9.86985 26.5682C9.86985 28.5116 11.4736 30.1016 13.4337 30.1016H34.8167V26.5682H14.1821C13.9326 26.5682 13.7366 26.3739 13.7366 26.1266L13.7901 25.9146L15.3938 23.0349H28.6691C30.0055 23.0349 31.1816 22.3106 31.7874 21.2152L38.1667 9.74956C38.3092 9.50223 38.3805 9.2019 38.3805 8.90156C38.3805 7.9299 37.5787 7.1349 36.5986 7.1349H10.2441L8.56905 3.60156H2.74219ZM31.2528 31.8682C29.2927 31.8682 27.7068 33.4582 27.7068 35.4016C27.7068 37.3449 29.2927 38.9349 31.2528 38.9349C33.213 38.9349 34.8167 37.3449 34.8167 35.4016C34.8167 33.4582 33.213 31.8682 31.2528 31.8682Z" fill="black"/>
</g>
<defs>
<clipPath id="clip0_282_1934">
<rect width="42.766" height="42.4" fill="white" transform="translate(0.960938 0.0664062)"/>
</clipPath>
</defs>
</svg>
