<svg width="200" height="200" viewBox="0 0 200 200" fill="none" xmlns="http://www.w3.org/2000/svg">
<g clip-path="url(#clip0_282_1831)">
<path d="M150.498 51.057L90.2 111.355L57.3515 78.5985L44.45 91.5L90.2 137.25L163.4 64.05L150.498 51.057ZM108.5 0C57.992 0 17 40.992 17 91.5C17 142.008 57.992 183 108.5 183C159.008 183 200 142.008 200 91.5C200 40.992 159.008 0 108.5 0ZM108.5 164.7C68.057 164.7 35.3 131.943 35.3 91.5C35.3 51.057 68.057 18.3 108.5 18.3C148.943 18.3 181.7 51.057 181.7 91.5C181.7 131.943 148.943 164.7 108.5 164.7Z" fill="#16E851"/>
</g>
<defs>
<clipPath id="clip0_282_1831">
<rect width="200" height="200" fill="white"/>
</clipPath>
</defs>
</svg>
